<svg xmlns="http://www.w3.org/2000/svg" xmlns:xlink="http://www.w3.org/1999/xlink" version="1.1" id="Capa_1" x="0px" y="0px" style="enable-background:new 0 0 315.2 235.2;" xml:space="preserve" viewBox="63.6 67.7 187.6 100">
<style type="text/css">
	.st0{fill:#458295;}
	.st1{fill:#E8944A;}
	.st2{fill:#E8944A;stroke:#E8944A;stroke-width:0.499;stroke-miterlimit:10;}
	.st3{fill:#FFFFFF;}
	.st4{fill:none;}
</style>
<g>
	<g>
		<path class="st3" d="M110.7,148.2c-0.2-0.4-1-0.5-0.1-1.2c2.8-1.9,5.9-1.8,8.7-3.8l-0.1-0.8c2.5-0.9,5.1-1.8,7.7-2.7    c2.2-1.2,4.4-2.3,6.6-3.5l0.7-0.4l0.4-0.2c0,0,0,0,0,0c0,0,0.1-0.1,0.1-0.1c0.1-0.1,0.1-0.1,0.2-0.2c0-0.3,0-0.5,0.1-0.6    c0.1,0,0.1,0,0.2,0c0.2,0.1,0.4,0.1,0.6,0.2c0.2,0.1,0.5,0.2,0.8,0.3c1.1,0.4,2.3,1,3.5,1.5c0.4,0.1,0.8,0.2,1.2,0.4    c0.4,0,0.5-0.2,0.6-0.4c1.2,0.5,2.2,1,3.1,1.6c3.4,1.2,6.9,2.5,10.4,3.9c1.7,0.7,3.5,1.5,5.2,2.3c0.8,0.4,1.7,0.8,2.5,1.3l1.2,0.6    c0.4,0.2,0.6,0.3,1.4,0.9c1.1,0.9,2.2,1.7,3.5,2.3c1.2,0.6,2.7,0.9,4.1,1c2.8,0.2,5.8-0.6,8.4-1.5c2.3-0.9,4.1-1.8,6-2.8    c1.9-1,3.6-2.1,5.4-3.2c2.9-2.2,5.7-4.6,8.5-6.6c0.8-0.5,1.7-1.1,2.6-1.6c0.7-0.4,1.5-0.9,2.2-1.4c1.3-0.7,2.6-1.5,3.8-2.2    c0.7,0.5,1.3,1.2,1.8,1.7c0.2-1.6,2.1-1.1,4.6-0.2c2.6,1,5,1.8,4.9,0c2.4,2.2,6.1,5.3,6.7,4.9c2-1.2,5.5-1.4,12.8,2.6    c1.4,0.9,2.9,2.2,4.1,3.3c1.3,1.1,2.2,1.8,2.7,1.8c1.6,0.2-1.9-3.1-0.3-2.9c-2.2-1.6-4.7-3.6-7.2-5.6c-2.5-2.1-4.9-4.1-7.4-6.2    c-2.5-2.1-5-4.2-7.4-6.3l-6.6-5.8l-7.5-6.6c-4.8,3.3-9.7,6.8-14.3,9.6c-2.3,1.5-4.6,2.9-6.9,4.2c-2.3,1.3-4.7,2.6-6.9,3.7    c-1.1,0.5-2.3,1.1-3.4,1.5c-0.6,0.2-1.1,0.4-1.6,0.6c-0.3,0.1-0.5,0.2-0.8,0.3l-0.6,0.2c-0.1,0.1-0.1,0.3-0.2,0.4    c-0.1,0.1-0.3,0.2-0.5,0.1c0,0,0,0-0.1,0l-0.4-0.3c-0.3-0.2-0.7-0.5-1-0.7c-0.7-0.5-1.3-0.9-2-1.3c-1.4-0.9-2.7-1.7-4.2-2.5    c-2.8-1.6-5.9-3.2-9-4.8c-3.2-1.5-6.4-3.1-9.9-4.5c-1.7-0.7-3.5-1.4-5.3-2.1c-0.9-0.3-1.9-0.6-2.9-1c-0.4-0.1-1.4-0.4-2.1-0.6    c-0.8-0.2-1.6-0.3-2.3-0.5c-1.6-0.3-3.1-0.3-4.6-0.2c-0.8,0-1.5,0.3-2.2,0.5c-0.7,0.2-1.5,0.5-2.2,0.7c-0.7,0.3-1.4,0.6-2.1,0.9    l-1.3,0.6c-0.8,0.4-1.5,0.7-2.3,1.1c-3,1.4-5.7,2.8-8.3,4.1c-5.1,2.5-9.2,4.6-11.9,5.9l-1.2,0.7c-7.3,3.6-15.9,8.4-21.6,12.5    c-2.5,2-5,4.2-7.5,6.3c1.5-0.3,2.9-0.6,4.2-0.8c-2.9,1.5-5.8,2.9-6.7,3.9c-5.6,4.2-1.5,3.5,1.6,3.8c2-0.2,0.3,2,3.3,1.3    c-1.9,1-2.9,1.5-4.8,2.5c0.1,0.8,5.7-3.4,4.9-1.7c-2,0.7-3.8,2.2-5.7,3.2c1.1,0.5,6.8-3.2,6.9-2.2c-0.9,0.7-6,1.7-5.8,2.9    c0,0.3,2-0.7,2.9-1.2c-5.7,3.4-8.4,6.2-2.4,4.5c-1.9,1-4.7,1.9-6.6,3.1c0,0,0,0,0,0c1-0.5,2.8-1.2,3.7-1.6l-3.4,1.7    c0.3,0.1,0.5,0.1,0.8,0.1c0.9-0.3,1.8-0.7,2.7-1.1l-2.2,1.1c0.7,0.1,1.6,0,2.4,0c3-0.7,6.1-1,7.5-1.8    C87.3,159.9,99.1,154.2,110.7,148.2z"/>
	</g>
	<g>
		<polygon class="st3" points="235.6,70.3 247.7,70.3 247.7,161.7 241.6,163.8 235.6,162 235.6,130.9 232.1,121.2 232.1,92.8     236.2,86.4   "/>
		<g>
			<path class="st3" d="M250.9,100.2c0.3,9.5,0.2,20.1,0.2,30.7c0,5.3,0,10.6,0,15.8c0,2.6,0,5.1,0,7.7c0,3.4,0.1,6.7,0.1,9.9     c-0.1,0-0.3,0.1-0.4,0.1c-3,1.1-6,2.2-9.1,3.3c-3.3-0.9-6.6-1.9-10-2.8c-0.1-6.1-0.2-12.2-0.2-18.4c0-4.9-0.1-9.9-0.1-14.9     c-1.2-3.3-2.4-6.5-3.6-9.8c0-6.1,0-12.2,0-18.2c0.3,0,0.9,1.9,1,0c0.5-7.7,1.2-7.7,1.9-7.7c0.3,0,0,5.8,0.3,3.9     c0,5.8,0.2,15.4,0.5,9.6c0.3-1.9,0-9.6,0.5-11.6c0.5-1.9,1,1.9,1.5,0v-4.7l1.1-1.7c1.3-1.4-0.2,2.2,0.9,0.6     c0.5-0.6,0.9-1.3,1.4-2c0.2-0.4,0.5-0.7,0.7-1.1c0.4-0.6,0.8-1.2,1.2-1.9c0-1.5-0.1-3.1-0.1-4.7c0-1.3-0.1-2.6-0.2-4     c-0.1-2.7-0.2-5.5-0.3-8.3c0.3,0,0.6-2,0.9,1.9c0.2,5.1,0.4,10.2,0.6,15.4c-1.4,2.2-2.7,4.3-4.1,6.5c0.1,8.8,0.1,17.7,0.2,26.6     c1.2,3.2,2.4,6.5,3.6,9.8c0.1,9.5,0.1,19.1,0.2,28.6l0.1,0l1.4,0.4l0.2,0.1l0,0l0,0l0,0c0.1,0-0.1,0,0.2-0.1l1.5-0.5     c0.2-0.1,0.1,0,0.1,0l0,0l0,0l0,0c0-14.3-0.1-28.6-0.1-42.8c0-7.6,0-15.2,0-22.8c0-3.8,0-7.6,0-11.4l0-5.7l0-1.4l0,0l0,0     c0,0,0,0-0.1,0l-4.3,0c-7.7-0.2-1.9-0.9,3.8-1.4c-1.9,0.2-1.9-0.3-3.8-0.2c0-0.2,0.7-0.5,2.2-0.8c0.4-0.1,0.8-0.1,1.2-0.2     c0.4-0.1,1-0.1,1.3-0.2c0.7-0.1,1.6-0.2,2.8-0.3c0,0.6,0.1,1.3,0.1,2.1v-2.2h-2.1c-0.7-0.1-0.7-0.2-0.5-0.4     c0.2-0.2,0.7-0.3,0.8-0.5c1,0,2,0,2.7,0c0,0.5,0.1,0.9,0.1,0.8c0.2-0.1,0.5-0.4,0.7-0.5v-1.1H241c1,0,1.9,0,2.7,0     c0.8,0,1.4-0.1,1.4-0.2c0.1-0.2,0.2-0.5,0.2-0.7c1.2,0,2.5-0.1,3.9,0c0,2.2-0.1,4.7-0.1,7.1c0,1.8,0,3.6,0,5.1h0.5     c0.1-1.5,0.1-3.3,0.1-5.1c0-2.5,0-5.1-0.1-7.5c-1.5,0-2.9,0-4.2,0c2.9-0.2,3.1-0.3,3.3-0.7l1.6,0c0,2.2,0,4.5,0,6.7l-0.1,4.2     c0,2.7,0,5.5,0.2,8.2v-5.8C251.4,84.8,250.7,94.4,250.9,100.2z"/>
		</g>
	</g>
	<polygon class="st3" points="193.7,145.3 203.1,167.7 212.6,166.3 200.8,141.2  "/>
	<polygon class="st3" points="207.1,167.1 207.1,151.5 216.8,148.6 216.8,153.9 223.3,148.6 229.2,153.9 229.2,163.9  "/>
</g>
</svg>