<?xml version="1.0" encoding="utf-8"?>
<!-- Generator: Adobe Illustrator 24.3.0, SVG Export Plug-In . SVG Version: 6.00 Build 0)  -->
<svg version="1.1" id="Capa_1" xmlns="http://www.w3.org/2000/svg" xmlns:xlink="http://www.w3.org/1999/xlink" x="0px" y="0px"
	 viewBox="0 0 315.2 325.1" style="enable-background:new 0 0 315.2 325.1;" xml:space="preserve">
<style type="text/css">
	.st0{fill:#458295;}
	.st1{fill:#E8944A;}
	.st2{fill:#E8944A;stroke:#E8944A;stroke-width:0.499;stroke-miterlimit:10;}
	.st3{fill:#FFFFFF;}
	.st4{fill:none;}
</style>
<rect class="st0" width="315.7" height="325.1"/>
<polyline class="st4" points="252,36.1 252,241.5 65.5,241.5 65.5,36.1 252,36.1 "/>
<g>
	<g>
		<path class="st3" d="M111.9,133.5c-0.2-0.4-1-0.5-0.1-1.2c2.8-1.9,5.9-1.8,8.7-3.8l-0.1-0.8c2.5-0.9,5.1-1.8,7.7-2.7
			c2.2-1.2,4.4-2.3,6.6-3.5l0.7-0.4l0.4-0.2c0,0,0,0,0,0c0,0,0.1-0.1,0.1-0.1c0.1-0.1,0.1-0.1,0.2-0.2c0-0.3,0-0.5,0.1-0.6
			c0.1,0,0.1,0,0.2,0c0.2,0.1,0.4,0.1,0.6,0.2c0.2,0.1,0.5,0.2,0.8,0.3c1.1,0.4,2.3,1,3.5,1.5c0.4,0.1,0.8,0.2,1.2,0.4
			c0.4,0,0.5-0.2,0.6-0.4c1.2,0.5,2.2,1,3.1,1.6c3.4,1.2,6.9,2.5,10.4,3.9c1.7,0.7,3.5,1.5,5.2,2.3c0.8,0.4,1.7,0.8,2.5,1.3l1.2,0.6
			c0.4,0.2,0.6,0.3,1.4,0.9c1.1,0.9,2.2,1.7,3.5,2.3c1.2,0.6,2.7,0.9,4.1,1c2.8,0.2,5.8-0.6,8.4-1.5c2.3-0.9,4.1-1.8,6-2.8
			c1.9-1,3.6-2.1,5.4-3.2c2.9-2.2,5.7-4.6,8.5-6.6c0.8-0.5,1.7-1.1,2.6-1.6c0.7-0.4,1.5-0.9,2.2-1.4c1.3-0.7,2.6-1.5,3.8-2.2
			c0.7,0.5,1.3,1.2,1.8,1.7c0.2-1.6,2.1-1.1,4.6-0.2c2.6,1,5,1.8,4.9,0c2.4,2.2,6.1,5.3,6.7,4.9c2-1.2,5.5-1.4,12.8,2.6
			c1.4,0.9,2.9,2.2,4.1,3.3c1.3,1.1,2.2,1.8,2.7,1.8c1.6,0.2-1.9-3.1-0.3-2.9c-2.2-1.6-4.7-3.6-7.2-5.6c-2.5-2.1-4.9-4.1-7.4-6.2
			c-2.5-2.1-5-4.2-7.4-6.3l-6.6-5.8l-7.5-6.6c-4.8,3.3-9.7,6.8-14.3,9.6c-2.3,1.5-4.6,2.9-6.9,4.2c-2.3,1.3-4.7,2.6-6.9,3.7
			c-1.1,0.5-2.3,1.1-3.4,1.5c-0.6,0.2-1.1,0.4-1.6,0.6c-0.3,0.1-0.5,0.2-0.8,0.3l-0.6,0.2c-0.1,0.1-0.1,0.3-0.2,0.4
			c-0.1,0.1-0.3,0.2-0.5,0.1c0,0,0,0-0.1,0l-0.4-0.3c-0.3-0.2-0.7-0.5-1-0.7c-0.7-0.5-1.3-0.9-2-1.3c-1.4-0.9-2.7-1.7-4.2-2.5
			c-2.8-1.6-5.9-3.2-9-4.8c-3.2-1.5-6.4-3.1-9.9-4.5c-1.7-0.7-3.5-1.4-5.3-2.1c-0.9-0.3-1.9-0.6-2.9-1c-0.4-0.1-1.4-0.4-2.1-0.6
			c-0.8-0.2-1.6-0.3-2.3-0.5c-1.6-0.3-3.1-0.3-4.6-0.2c-0.8,0-1.5,0.3-2.2,0.5c-0.7,0.2-1.5,0.5-2.2,0.7c-0.7,0.3-1.4,0.6-2.1,0.9
			l-1.3,0.6c-0.8,0.4-1.5,0.7-2.3,1.1c-3,1.4-5.7,2.8-8.3,4.1c-5.1,2.5-9.2,4.6-11.9,5.9l-1.2,0.7c-7.3,3.6-15.9,8.4-21.6,12.5
			c-2.5,2-5,4.2-7.5,6.3c1.5-0.3,2.9-0.6,4.2-0.8c-2.9,1.5-5.8,2.9-6.7,3.9c-5.6,4.2-1.5,3.5,1.6,3.8c2-0.2,0.3,2,3.3,1.3
			c-1.9,1-2.9,1.5-4.8,2.5c0.1,0.8,5.7-3.4,4.9-1.7c-2,0.7-3.8,2.2-5.7,3.2c1.1,0.5,6.8-3.2,6.9-2.2c-0.9,0.7-6,1.7-5.8,2.9
			c0,0.3,2-0.7,2.9-1.2c-5.7,3.4-8.4,6.2-2.4,4.5c-1.9,1-4.7,1.9-6.6,3.1c0,0,0,0,0,0c1-0.5,2.8-1.2,3.7-1.6l-3.4,1.7
			c0.3,0.1,0.5,0.1,0.8,0.1c0.9-0.3,1.8-0.7,2.7-1.1l-2.2,1.1c0.7,0.1,1.6,0,2.4,0c3-0.7,6.1-1,7.5-1.8
			C88.5,145.2,100.3,139.5,111.9,133.5z"/>
	</g>
	<g>
		<polygon class="st3" points="236.8,55.6 248.9,55.6 248.9,147 242.8,149.1 236.8,147.3 236.8,116.2 233.3,106.5 233.3,78.1 
			237.4,71.7 		"/>
		<g>
			<path class="st3" d="M252.1,85.5c0.3,9.5,0.2,20.1,0.2,30.7c0,5.3,0,10.6,0,15.8c0,2.6,0,5.1,0,7.7c0,3.4,0.1,6.7,0.1,9.9
				c-0.1,0-0.3,0.1-0.4,0.1c-3,1.1-6,2.2-9.1,3.3c-3.3-0.9-6.6-1.9-10-2.8c-0.1-6.1-0.2-12.2-0.2-18.4c0-4.9-0.1-9.9-0.1-14.9
				c-1.2-3.3-2.4-6.5-3.6-9.8c0-6.1,0-12.2,0-18.2c0.3,0,0.9,1.9,1,0c0.5-7.7,1.2-7.7,1.9-7.7c0.3,0,0,5.8,0.3,3.9
				c0,5.8,0.2,15.4,0.5,9.6c0.3-1.9,0-9.6,0.5-11.6c0.5-1.9,1,1.9,1.5,0v-4.7l1.1-1.7c1.3-1.4-0.2,2.2,0.9,0.6
				c0.5-0.6,0.9-1.3,1.4-2c0.2-0.4,0.5-0.7,0.7-1.1c0.4-0.6,0.8-1.2,1.2-1.9c0-1.5-0.1-3.1-0.1-4.7c0-1.3-0.1-2.6-0.2-4
				c-0.1-2.7-0.2-5.5-0.3-8.3c0.3,0,0.6-2,0.9,1.9c0.2,5.1,0.4,10.2,0.6,15.4c-1.4,2.2-2.7,4.3-4.1,6.5c0.1,8.8,0.1,17.7,0.2,26.6
				c1.2,3.2,2.4,6.5,3.6,9.8c0.1,9.5,0.1,19.1,0.2,28.6l0.1,0l1.4,0.4l0.2,0.1l0,0l0,0l0,0c0.1,0-0.1,0,0.2-0.1l1.5-0.5
				c0.2-0.1,0.1,0,0.1,0l0,0l0,0l0,0c0-14.3-0.1-28.6-0.1-42.8c0-7.6,0-15.2,0-22.8c0-3.8,0-7.6,0-11.4l0-5.7l0-1.4l0,0l0,0
				c0,0,0,0-0.1,0l-4.3,0c-7.7-0.2-1.9-0.9,3.8-1.4c-1.9,0.2-1.9-0.3-3.8-0.2c0-0.2,0.7-0.5,2.2-0.8c0.4-0.1,0.8-0.1,1.2-0.2
				c0.4-0.1,1-0.1,1.3-0.2c0.7-0.1,1.6-0.2,2.8-0.3c0,0.6,0.1,1.3,0.1,2.1v-2.2h-2.1c-0.7-0.1-0.7-0.2-0.5-0.4
				c0.2-0.2,0.7-0.3,0.8-0.5c1,0,2,0,2.7,0c0,0.5,0.1,0.9,0.1,0.8c0.2-0.1,0.5-0.4,0.7-0.5V55h-7.3c1,0,1.9,0,2.7,0
				c0.8,0,1.4-0.1,1.4-0.2c0.1-0.2,0.2-0.5,0.2-0.7c1.2,0,2.5-0.1,3.9,0c0,2.2-0.1,4.7-0.1,7.1c0,1.8,0,3.6,0,5.1h0.5
				c0.1-1.5,0.1-3.3,0.1-5.1c0-2.5,0-5.1-0.1-7.5c-1.5,0-2.9,0-4.2,0c2.9-0.2,3.1-0.3,3.3-0.7l1.6,0c0,2.2,0,4.5,0,6.7l-0.1,4.2
				c0,2.7,0,5.5,0.2,8.2v-5.8C252.6,70.1,251.9,79.7,252.1,85.5z"/>
		</g>
	</g>
	<polygon class="st3" points="194.9,130.6 204.3,153 213.8,151.6 201.9,126.5 	"/>
	<polygon class="st3" points="208.3,152.4 208.3,136.8 218,133.9 218,139.2 224.5,133.9 230.4,139.2 230.4,149.2 	"/>
</g>
<g>
	<g>
		<path class="st3" d="M65.2,200.1v-25.5h3.9v22.2h11.7v3.4H65.2z"/>
		<path class="st3" d="M89.9,200.5c-1.2,0-2.3-0.2-3.3-0.7c-1-0.4-1.7-1.1-2.3-1.9c-0.6-0.9-0.8-1.9-0.8-3.2c0-1.1,0.2-2,0.6-2.6
			c0.4-0.7,1-1.2,1.7-1.6c0.7-0.4,1.5-0.7,2.4-0.9c0.9-0.2,1.8-0.4,2.7-0.5c1.1-0.1,2-0.3,2.7-0.3c0.7-0.1,1.2-0.2,1.5-0.4
			c0.3-0.2,0.5-0.5,0.5-1v-0.1c0-0.7-0.1-1.3-0.4-1.8c-0.3-0.5-0.7-0.9-1.2-1.1c-0.5-0.3-1.2-0.4-2-0.4c-0.8,0-1.5,0.1-2.1,0.4
			s-1.1,0.6-1.4,1c-0.4,0.4-0.6,0.8-0.8,1.3l-3.5-0.7c0.4-1.2,0.9-2.1,1.7-2.8s1.7-1.3,2.8-1.6s2.2-0.5,3.4-0.5
			c0.8,0,1.7,0.1,2.6,0.3c0.9,0.2,1.7,0.6,2.4,1c0.7,0.5,1.3,1.2,1.8,2c0.4,0.8,0.7,1.9,0.7,3.2v12.7h-3.6v-2.6h-0.2
			c-0.3,0.5-0.6,1-1.1,1.4s-1.1,0.8-1.8,1.1S91,200.5,89.9,200.5z M90.8,197.5c1,0,1.9-0.2,2.6-0.6c0.7-0.4,1.3-0.9,1.6-1.6
			c0.4-0.7,0.6-1.3,0.6-2.1v-2.4c-0.1,0.1-0.4,0.2-0.7,0.3c-0.4,0.1-0.8,0.2-1.3,0.3c-0.5,0.1-0.9,0.2-1.4,0.2
			c-0.5,0.1-0.9,0.1-1.2,0.2c-0.7,0.1-1.3,0.2-1.9,0.5c-0.6,0.2-1.1,0.5-1.4,0.9c-0.3,0.4-0.5,0.9-0.5,1.6c0,0.6,0.2,1.1,0.5,1.5
			c0.3,0.4,0.7,0.7,1.3,0.9C89.5,197.4,90.1,197.5,90.8,197.5z"/>
		<path class="st3" d="M112.2,207.7c-1.5,0-2.8-0.2-3.9-0.6s-2-0.9-2.7-1.6c-0.7-0.7-1.2-1.4-1.5-2.3l3.2-1.2
			c0.2,0.4,0.5,0.8,0.9,1.2c0.4,0.4,0.9,0.7,1.5,1c0.6,0.3,1.4,0.4,2.4,0.4c1.5,0,2.6-0.4,3.5-1.1c0.9-0.7,1.3-1.8,1.3-3.3v-3.5
			h-0.3c-0.3,0.5-0.6,1-1.1,1.4c-0.4,0.5-1,0.9-1.7,1.2s-1.6,0.5-2.7,0.5c-1.5,0-2.9-0.4-4.1-1.1c-1.2-0.7-2.2-1.8-2.8-3.2
			s-1-3.1-1-5.1c0-2,0.3-3.7,1-5.2s1.6-2.6,2.8-3.3s2.6-1.2,4.1-1.2c1.1,0,2,0.2,2.7,0.5c0.7,0.4,1.3,0.8,1.8,1.3
			c0.5,0.5,0.8,1,1.1,1.5h0.2v-3h3.7v19.1c0,1.7-0.4,3.1-1.1,4.2c-0.8,1.1-1.8,1.9-3.1,2.4C115.2,207.4,113.8,207.7,112.2,207.7z
			 M112.1,196.8c1.1,0,2-0.3,2.7-0.8s1.3-1.2,1.7-2.2c0.4-0.9,0.6-2.1,0.6-3.4c0-1.3-0.2-2.4-0.6-3.4c-0.4-1-1-1.7-1.7-2.3
			c-0.7-0.5-1.6-0.8-2.7-0.8c-1.1,0-2,0.3-2.7,0.8s-1.3,1.3-1.7,2.3c-0.4,1-0.6,2.1-0.6,3.3c0,1.3,0.2,2.4,0.6,3.3
			c0.4,0.9,1,1.7,1.7,2.2C110.1,196.6,111,196.8,112.1,196.8z"/>
		<path class="st3" d="M132.1,200.4c-1.3,0-2.4-0.3-3.4-0.8c-1-0.5-1.8-1.4-2.3-2.4c-0.6-1.1-0.8-2.4-0.8-4v-12h3.8v11.5
			c0,1.4,0.4,2.5,1.1,3.3c0.7,0.8,1.7,1.2,3,1.2c0.8,0,1.6-0.2,2.3-0.5s1.2-0.9,1.6-1.6c0.4-0.7,0.6-1.6,0.6-2.6v-11.1h3.8v18.9H138
			l0-4.6h0.5c-0.6,1.7-1.4,2.9-2.5,3.7C134.9,200,133.6,200.4,132.1,200.4z"/>
		<path class="st3" d="M150.1,189v11.1h-3.8v-18.9h3.6l0,4.6h-0.5c0.6-1.7,1.4-2.9,2.4-3.7s2.3-1.2,3.9-1.2c1.3,0,2.4,0.3,3.4,0.8
			c1,0.5,1.7,1.4,2.3,2.4c0.5,1.1,0.8,2.4,0.8,4v12h-3.7v-11.5c0-1.4-0.4-2.5-1.1-3.2s-1.7-1.2-2.9-1.2c-0.8,0-1.6,0.2-2.3,0.5
			s-1.2,0.9-1.6,1.6C150.3,187.1,150.1,187.9,150.1,189z"/>
		<path class="st3" d="M175.5,181.2v3.1h-10.4v-3.1H175.5z M168,176.5h3.8V195c0,0.7,0.2,1.3,0.5,1.6s0.8,0.5,1.6,0.5
			c0.2,0,0.5,0,0.8-0.1c0.3,0,0.6-0.1,0.8-0.1l0.5,3c-0.4,0.1-0.8,0.2-1.3,0.2c-0.4,0-0.9,0.1-1.3,0.1c-1.7,0-3.1-0.4-4-1.3
			s-1.4-2.1-1.4-3.7V176.5z"/>
		<path class="st3" d="M178.6,200.1v-2.6l10.2-13v-0.2h-9.9v-3.2h14.6v2.8l-9.8,12.8v0.2h10.1v3.2H178.6z"/>
		<path class="st3" d="M203.6,200.5c-1.2,0-2.3-0.2-3.3-0.7s-1.7-1.1-2.3-1.9c-0.6-0.9-0.8-1.9-0.8-3.2c0-1.1,0.2-2,0.6-2.6
			c0.4-0.7,1-1.2,1.7-1.6c0.7-0.4,1.5-0.7,2.4-0.9s1.8-0.4,2.7-0.5c1.1-0.1,2-0.3,2.7-0.3c0.7-0.1,1.2-0.2,1.5-0.4
			c0.3-0.2,0.5-0.5,0.5-1v-0.1c0-0.7-0.1-1.3-0.4-1.8c-0.3-0.5-0.7-0.9-1.2-1.1c-0.5-0.3-1.2-0.4-2-0.4c-0.8,0-1.5,0.1-2.1,0.4
			c-0.6,0.3-1.1,0.6-1.4,1c-0.4,0.4-0.6,0.8-0.8,1.3l-3.5-0.7c0.4-1.2,0.9-2.1,1.7-2.8s1.7-1.3,2.8-1.6c1.1-0.4,2.2-0.5,3.4-0.5
			c0.8,0,1.7,0.1,2.6,0.3c0.9,0.2,1.7,0.6,2.4,1c0.7,0.5,1.3,1.2,1.8,2c0.4,0.8,0.7,1.9,0.7,3.2v12.7h-3.6v-2.6h-0.2
			c-0.3,0.5-0.6,1-1.1,1.4s-1.1,0.8-1.8,1.1C205.5,200.4,204.6,200.5,203.6,200.5z M204.4,197.5c1,0,1.9-0.2,2.6-0.6
			c0.7-0.4,1.3-0.9,1.6-1.6c0.4-0.7,0.6-1.3,0.6-2.1v-2.4c-0.1,0.1-0.4,0.2-0.7,0.3c-0.4,0.1-0.8,0.2-1.3,0.3
			c-0.5,0.1-0.9,0.2-1.4,0.2c-0.5,0.1-0.9,0.1-1.2,0.2c-0.7,0.1-1.3,0.2-1.9,0.5c-0.6,0.2-1.1,0.5-1.4,0.9c-0.3,0.4-0.5,0.9-0.5,1.6
			c0,0.6,0.2,1.1,0.5,1.5c0.3,0.4,0.7,0.7,1.3,0.9C203.1,197.4,203.7,197.5,204.4,197.5z"/>
	</g>
	<g>
		<path class="st3" d="M65.2,242.3v-25.5h16.1v3.4H69.1v8.1h11v3.3h-11v10.8H65.2z"/>
		<path class="st3" d="M87.2,220.4c-0.7,0-1.2-0.2-1.7-0.7c-0.5-0.4-0.7-1-0.7-1.6c0-0.6,0.2-1.2,0.7-1.6c0.5-0.4,1-0.6,1.7-0.6
			s1.2,0.2,1.7,0.6c0.5,0.4,0.7,1,0.7,1.6c0,0.6-0.2,1.1-0.7,1.6C88.4,220.1,87.9,220.4,87.2,220.4z M85.4,242.3v-18.9h3.8v18.9
			H85.4z"/>
		<path class="st3" d="M100.8,242.7c-1.4,0-2.6-0.2-3.7-0.6c-1.1-0.4-2-1-2.7-1.8c-0.7-0.8-1.1-1.8-1.3-3l3.6-0.6
			c0.2,1,0.7,1.7,1.4,2.2c0.7,0.5,1.6,0.7,2.8,0.7c1.2,0,2.2-0.2,2.9-0.7c0.7-0.5,1.1-1.1,1.1-1.8c0-0.6-0.2-1.1-0.7-1.5
			c-0.5-0.4-1.1-0.7-2-0.9l-3.2-0.7c-1.8-0.4-3.1-1-3.9-1.9c-0.9-0.9-1.3-2-1.3-3.4c0-1.1,0.3-2.1,0.9-3c0.6-0.8,1.5-1.5,2.6-2
			s2.4-0.7,3.8-0.7c1.4,0,2.6,0.2,3.6,0.6s1.8,1,2.4,1.8c0.6,0.8,1,1.6,1.2,2.6l-3.4,0.6c-0.2-0.7-0.6-1.3-1.2-1.9
			c-0.6-0.5-1.5-0.8-2.6-0.8c-1,0-1.9,0.2-2.6,0.7c-0.7,0.5-1,1.1-1,1.8c0,0.6,0.2,1.1,0.7,1.5c0.5,0.4,1.2,0.7,2.2,0.9l3.1,0.7
			c1.8,0.4,3.1,1,4,1.9s1.3,1.9,1.3,3.3c0,1.2-0.3,2.2-1,3.1c-0.7,0.9-1.6,1.6-2.7,2.1C103.7,242.4,102.3,242.7,100.8,242.7z"/>
		<path class="st3" d="M114.4,220.4c-0.7,0-1.2-0.2-1.7-0.7s-0.7-1-0.7-1.6c0-0.6,0.2-1.2,0.7-1.6s1-0.6,1.7-0.6
			c0.7,0,1.2,0.2,1.7,0.6c0.5,0.4,0.7,1,0.7,1.6c0,0.6-0.2,1.1-0.7,1.6C115.6,220.1,115,220.4,114.4,220.4z M112.5,242.3v-18.9h3.8
			v18.9H112.5z"/>
		<path class="st3" d="M129.1,242.6c-1.8,0-3.3-0.4-4.7-1.2c-1.3-0.8-2.4-2-3.1-3.4c-0.7-1.5-1.1-3.2-1.1-5.1c0-2,0.4-3.7,1.1-5.2
			s1.8-2.6,3.1-3.4c1.3-0.8,2.9-1.2,4.7-1.2c1.8,0,3.4,0.4,4.7,1.2c1.3,0.8,2.4,2,3.1,3.4c0.7,1.5,1.1,3.2,1.1,5.2
			c0,1.9-0.4,3.6-1.1,5.1c-0.7,1.5-1.8,2.6-3.1,3.4C132.4,242.2,130.9,242.6,129.1,242.6z M129.1,239.5c1.1,0,2.1-0.3,2.8-0.9
			c0.8-0.6,1.3-1.4,1.7-2.4c0.4-1,0.6-2.1,0.6-3.3c0-1.2-0.2-2.4-0.6-3.4c-0.4-1-0.9-1.8-1.7-2.4c-0.8-0.6-1.7-0.9-2.8-0.9
			c-1.1,0-2.1,0.3-2.8,0.9s-1.3,1.4-1.7,2.4c-0.4,1-0.6,2.1-0.6,3.4c0,1.2,0.2,2.3,0.6,3.3c0.4,1,0.9,1.8,1.7,2.4
			S127.9,239.5,129.1,239.5z"/>
		<path class="st3" d="M150.3,223.3v3.1h-10.4v-3.1H150.3z M142.7,218.7h3.8v18.5c0,0.7,0.2,1.3,0.5,1.6c0.3,0.3,0.8,0.5,1.6,0.5
			c0.2,0,0.5,0,0.8-0.1c0.3,0,0.6-0.1,0.8-0.1l0.5,3c-0.4,0.1-0.8,0.2-1.3,0.2c-0.4,0-0.9,0.1-1.3,0.1c-1.7,0-3.1-0.4-4-1.3
			c-0.9-0.9-1.4-2.1-1.4-3.7V218.7z"/>
		<path class="st3" d="M161.6,242.6c-1.9,0-3.5-0.4-4.8-1.2c-1.3-0.8-2.4-1.9-3.1-3.4c-0.7-1.5-1.1-3.2-1.1-5.1
			c0-1.9,0.4-3.6,1.1-5.1c0.7-1.5,1.7-2.6,3.1-3.5s2.8-1.3,4.6-1.3c1.1,0,2.2,0.2,3.2,0.6c1,0.4,1.9,1,2.7,1.7
			c0.8,0.8,1.4,1.8,1.9,3c0.5,1.2,0.7,2.6,0.7,4.3v1.3h-15.3v-2.8h13.3l-1.7,0.9c0-1.2-0.2-2.2-0.6-3.1c-0.4-0.9-0.9-1.6-1.6-2.1
			s-1.6-0.7-2.7-0.7c-1.1,0-2,0.3-2.7,0.8s-1.3,1.2-1.7,2c-0.4,0.8-0.6,1.8-0.6,2.8v1.8c0,1.3,0.2,2.4,0.7,3.3
			c0.4,0.9,1.1,1.6,1.9,2.1c0.8,0.5,1.7,0.7,2.8,0.7c0.7,0,1.4-0.1,2-0.3c0.6-0.2,1.1-0.5,1.5-0.9c0.4-0.4,0.7-0.9,0.9-1.5l3.5,0.7
			c-0.3,1-0.8,1.9-1.5,2.7s-1.6,1.4-2.7,1.8C164.2,242.4,163,242.6,161.6,242.6z"/>
		<path class="st3" d="M173.7,242.3v-18.9h3.6v3h0.2c0.4-1,1-1.8,1.8-2.4c0.8-0.6,1.8-0.9,3-0.9c0.3,0,0.5,0,0.8,0
			c0.3,0,0.5,0,0.7,0.1v3.5c-0.1,0-0.4-0.1-0.8-0.1c-0.4,0-0.8-0.1-1.2-0.1c-0.8,0-1.6,0.2-2.2,0.5c-0.7,0.4-1.2,0.9-1.6,1.5
			c-0.4,0.6-0.6,1.4-0.6,2.3v11.4H173.7z"/>
		<path class="st3" d="M192.1,242.6c-1.2,0-2.3-0.2-3.3-0.7s-1.7-1.1-2.3-1.9s-0.8-1.9-0.8-3.2c0-1.1,0.2-2,0.6-2.6
			c0.4-0.7,1-1.2,1.7-1.6c0.7-0.4,1.5-0.7,2.4-0.9s1.8-0.4,2.7-0.5c1.1-0.1,2-0.3,2.7-0.3c0.7-0.1,1.2-0.2,1.5-0.4
			c0.3-0.2,0.5-0.5,0.5-1v-0.1c0-0.7-0.1-1.3-0.4-1.8c-0.3-0.5-0.7-0.9-1.2-1.1c-0.5-0.3-1.2-0.4-2-0.4c-0.8,0-1.5,0.1-2.1,0.4
			c-0.6,0.3-1.1,0.6-1.4,1c-0.4,0.4-0.6,0.8-0.8,1.3l-3.5-0.7c0.4-1.2,0.9-2.1,1.7-2.8c0.8-0.7,1.7-1.3,2.8-1.6
			c1.1-0.4,2.2-0.5,3.4-0.5c0.8,0,1.7,0.1,2.6,0.3c0.9,0.2,1.7,0.6,2.4,1c0.7,0.5,1.3,1.2,1.8,2c0.4,0.8,0.7,1.9,0.7,3.2v12.7h-3.6
			v-2.6h-0.2c-0.3,0.5-0.6,1-1.1,1.4s-1.1,0.8-1.8,1.1C194,242.5,193.2,242.6,192.1,242.6z M192.9,239.6c1,0,1.9-0.2,2.6-0.6
			c0.7-0.4,1.3-0.9,1.6-1.6c0.4-0.7,0.6-1.3,0.6-2.1V233c-0.1,0.1-0.4,0.2-0.7,0.3c-0.4,0.1-0.8,0.2-1.3,0.3s-0.9,0.2-1.4,0.2
			c-0.5,0.1-0.9,0.1-1.2,0.2c-0.7,0.1-1.3,0.2-1.9,0.5c-0.6,0.2-1.1,0.5-1.4,0.9c-0.3,0.4-0.5,0.9-0.5,1.6c0,0.6,0.2,1.1,0.5,1.5
			c0.3,0.4,0.7,0.7,1.3,0.9C191.6,239.5,192.2,239.6,192.9,239.6z"/>
		<path class="st3" d="M206.3,249.4v-26.1h3.7v3h0.3c0.3-0.5,0.6-0.9,1.1-1.4s1-0.9,1.7-1.3c0.7-0.4,1.6-0.5,2.7-0.5
			c1.6,0,2.9,0.4,4.1,1.2c1.2,0.8,2.1,1.9,2.8,3.4s1,3.2,1,5.2c0,2-0.3,3.8-1,5.2c-0.7,1.5-1.6,2.6-2.8,3.4
			c-1.2,0.8-2.6,1.2-4.1,1.2c-1.1,0-2-0.2-2.7-0.5c-0.7-0.4-1.3-0.8-1.8-1.3c-0.5-0.5-0.8-1-1.1-1.5h-0.2v10.1H206.3z M215,239.4
			c1.1,0,2-0.3,2.7-0.9c0.7-0.6,1.3-1.4,1.7-2.4c0.4-1,0.6-2.1,0.6-3.4c0-1.3-0.2-2.4-0.6-3.4s-0.9-1.8-1.7-2.3
			c-0.7-0.6-1.6-0.8-2.7-0.8c-1.1,0-2,0.3-2.7,0.8c-0.7,0.5-1.3,1.3-1.7,2.3c-0.4,1-0.6,2.1-0.6,3.5c0,1.3,0.2,2.5,0.6,3.5
			c0.4,1,1,1.8,1.7,2.3C213,239.2,213.9,239.4,215,239.4z"/>
		<path class="st3" d="M229.6,220.4c-0.7,0-1.2-0.2-1.7-0.7s-0.7-1-0.7-1.6c0-0.6,0.2-1.2,0.7-1.6s1-0.6,1.7-0.6s1.2,0.2,1.7,0.6
			c0.5,0.4,0.7,1,0.7,1.6c0,0.6-0.2,1.1-0.7,1.6C230.8,220.1,230.3,220.4,229.6,220.4z M227.7,242.3v-18.9h3.8v18.9H227.7z"/>
		<path class="st3" d="M241.7,242.6c-1.2,0-2.3-0.2-3.3-0.7c-1-0.4-1.7-1.1-2.3-1.9s-0.8-1.9-0.8-3.2c0-1.1,0.2-2,0.6-2.6
			c0.4-0.7,1-1.2,1.7-1.6c0.7-0.4,1.5-0.7,2.4-0.9c0.9-0.2,1.8-0.4,2.7-0.5c1.1-0.1,2-0.3,2.7-0.3c0.7-0.1,1.2-0.2,1.5-0.4
			c0.3-0.2,0.5-0.5,0.5-1v-0.1c0-0.7-0.1-1.3-0.4-1.8c-0.3-0.5-0.7-0.9-1.2-1.1c-0.5-0.3-1.2-0.4-2-0.4c-0.8,0-1.5,0.1-2.1,0.4
			c-0.6,0.3-1.1,0.6-1.4,1c-0.4,0.4-0.6,0.8-0.8,1.3l-3.5-0.7c0.4-1.2,0.9-2.1,1.7-2.8c0.8-0.7,1.7-1.3,2.8-1.6
			c1.1-0.4,2.2-0.5,3.4-0.5c0.8,0,1.7,0.1,2.6,0.3s1.7,0.6,2.4,1s1.3,1.2,1.8,2c0.4,0.8,0.7,1.9,0.7,3.2v12.7h-3.6v-2.6h-0.2
			c-0.3,0.5-0.6,1-1.1,1.4c-0.5,0.5-1.1,0.8-1.8,1.1C243.6,242.5,242.8,242.6,241.7,242.6z M242.5,239.6c1,0,1.9-0.2,2.6-0.6
			s1.3-0.9,1.6-1.6c0.4-0.7,0.6-1.3,0.6-2.1V233c-0.1,0.1-0.4,0.2-0.7,0.3c-0.4,0.1-0.8,0.2-1.3,0.3s-0.9,0.2-1.4,0.2
			s-0.9,0.1-1.2,0.2c-0.7,0.1-1.3,0.2-1.9,0.5c-0.6,0.2-1.1,0.5-1.4,0.9c-0.3,0.4-0.5,0.9-0.5,1.6c0,0.6,0.2,1.1,0.5,1.5
			c0.3,0.4,0.7,0.7,1.3,0.9S241.8,239.6,242.5,239.6z"/>
	</g>
</g>
</svg>
