<?xml version="1.0" encoding="UTF-8"?>
<svg xmlns="http://www.w3.org/2000/svg" xmlns:xlink="http://www.w3.org/1999/xlink" version="1.1" viewBox="0.13 0.15 100.1 16.38">
  <!-- Generator: Sketch 63.1 (92452) - https://sketch.com -->
  <title>ubikare aprobado</title>
  <desc>Created with Sketch.</desc>
  <g id="Symbols" stroke="none" stroke-width="1" fill="none" fill-rule="evenodd">
    <g id="menu-ubikare" transform="translate(-51.000000, -22.000000)" fill-rule="nonzero">
      <g id="ubikare-aprobado" transform="translate(51.000000, 22.000000)">
        <ellipse id="Oval" fill="#169539" cx="15.8223077" cy="14.9518873" rx="1.62478465" ry="1.56675663"></ellipse>
        <g id="Group" transform="translate(25.725757, 0.000000)">
          <path d="M10.0775334,4.68092721 L7.87246849,4.68092721 C7.69838442,4.68092721 7.5629857,4.81632593 7.5629857,4.97106733 L7.5629857,10.4450442 C7.5629857,12.9789345 6.17031314,13.8880402 4.8356686,13.8880402 C3.52036674,13.8880402 2.92074384,13.0176199 2.92074384,11.0833524 L2.92074384,4.97106733 C2.92074384,4.81632593 2.78534512,4.68092721 2.61126105,4.68092721 L0.386853488,4.68092721 C0.212769419,4.68092721 0.0967133721,4.81632593 0.0967133721,4.97106733 L0.0967133721,10.9866391 C0.0967133721,14.4102924 1.62478465,16.3252172 4.41012977,16.3252172 C5.78345965,16.3252172 6.84730674,15.7642797 7.5629857,15.087286 L7.5629857,15.8223077 C7.5629857,15.9770491 7.69838442,16.1124478 7.87246849,16.1124478 L10.0775334,16.1124478 C10.2516174,16.1124478 10.3870162,15.9770491 10.3870162,15.8223077 L10.3870162,4.99041 C10.3870162,4.81632593 10.2516174,4.68092721 10.0775334,4.68092721 Z" id="Path" fill="#1D43A0"></path>
          <path d="M18.356198,13.8493549 C17.7178898,13.8493549 15.6288809,13.5979001 15.6288809,10.3870162 C15.6288809,8.70420349 16.3445599,6.90533477 18.356198,6.90533477 C20.3871788,6.90533477 21.1028578,8.70420349 21.1028578,10.3870162 C21.0835151,12.0504862 20.3871788,13.8493549 18.356198,13.8493549 Z M18.8784502,4.46815779 C17.6598617,4.46815779 16.6347,4.8356686 15.8416503,5.51266221 L15.8416503,0.502909535 C15.8416503,0.34816814 15.7062516,0.212769419 15.5321676,0.212769419 L13.2884173,0.212769419 C13.1143333,0.212769419 12.9789345,0.34816814 12.9789345,0.502909535 L12.9789345,15.802965 C12.9789345,15.9577064 13.1143333,16.0931051 13.2884173,16.0931051 L15.5321676,16.0931051 C15.7062516,16.0931051 15.8416503,15.9577064 15.8416503,15.802965 L15.8416503,15.2613701 C16.6347,15.9383637 17.6985471,16.3058745 18.9171356,16.3058745 C21.8572221,16.3058745 23.9268883,13.8686976 23.9268883,10.3870162 C23.9075456,6.84730674 21.8959074,4.46815779 18.8784502,4.46815779 Z" id="Shape" fill="#1D43A0"></path>
          <path d="M28.6465008,4.68092721 L26.4607786,4.68092721 C26.2866945,4.68092721 26.1512958,4.81632593 26.1512958,4.97106733 L26.1512958,15.7836223 C26.1512958,15.9383637 26.2866945,16.0737624 26.4607786,16.0737624 L28.6465008,16.0737624 C28.8205849,16.0737624 28.9559836,15.9383637 28.9559836,15.7836223 L28.9559836,4.97106733 C28.9559836,4.81632593 28.8205849,4.68092721 28.6465008,4.68092721 Z" id="Path" fill="#1D43A0"></path>
          <path d="M37.9696699,9.0717143 L41.7608341,5.16449407 C41.8575474,5.08712337 41.8575474,4.95172465 41.8188621,4.8356686 C41.7608341,4.71961256 41.6641207,4.66158453 41.528722,4.66158453 L38.7240342,4.66158453 C38.6273208,4.66158453 38.5499501,4.70026988 38.4919221,4.75829791 L34.3525898,9.36185442 L34.3525898,0.464224186 C34.3719324,0.309482791 34.2365337,0.17408407 34.0624497,0.17408407 L31.8573848,0.17408407 C31.6833007,0.17408407 31.547902,0.309482791 31.547902,0.464224186 L31.547902,15.7642797 C31.547902,15.919021 31.6833007,16.0544198 31.8573848,16.0544198 L34.043107,16.0544198 C34.217191,16.0544198 34.3525898,15.919021 34.3525898,15.7642797 L34.3525898,12.7274798 L36.0934305,10.870583 L39.2849717,15.9383637 C39.3429998,16.0157344 39.4397131,16.0737624 39.5557692,16.0737624 L42.1670302,16.0737624 C42.2830863,16.0737624 42.3797997,16.0157344 42.4378277,15.919021 C42.4958557,15.8223077 42.4958557,15.7062516 42.418485,15.6288809 L37.9696699,9.0717143 Z" id="Path" fill="#1D43A0"></path>
          <path d="M47.6023217,13.9460683 C47.1187549,13.9460683 45.9968798,13.8300122 45.9968798,12.7081371 C45.9968798,12.3793116 45.9968798,11.3348072 48.356686,11.3348072 L50.619779,11.3348072 C50.4650376,12.6307664 49.2851344,13.9460683 47.6023217,13.9460683 Z M48.3760287,4.46815779 C46.3837333,4.46815779 44.8169766,5.24186477 43.6177308,6.82796407 C43.5210174,6.94402012 43.5403601,7.13744686 43.6757588,7.23416023 L45.3198862,8.41406337 C45.3972569,8.4720914 45.4746276,8.49143407 45.5519983,8.4720914 C45.6487116,8.45274872 45.7067397,8.41406337 45.745425,8.35603535 C46.1903065,7.69838442 47.0220415,6.90533477 48.3953714,6.90533477 C49.7687013,6.90533477 50.5230656,7.67904174 50.619779,9.2264557 L48.182602,9.2264557 C45.8808237,9.2264557 43.1148213,9.8260786 43.1148213,12.6694517 C43.1148213,14.8745166 44.797634,16.3445599 47.292839,16.3445599 C48.7435395,16.3445599 49.9427853,15.8416503 50.793863,14.855174 L50.851891,15.8416503 C50.8712337,15.9963917 51.0066324,16.1124478 51.1613738,16.1124478 L52.9795852,16.1124478 C53.1536693,16.1124478 53.289068,15.9770491 53.289068,15.8223077 L53.289068,9.18777035 C53.347096,6.26702651 51.451514,4.46815779 48.3760287,4.46815779 Z" id="Shape" fill="#1D43A0"></path>
          <path d="M61.5870753,4.46815779 C60.4458576,4.46815779 59.3820105,4.97106733 58.6856742,5.78345965 L58.6856742,4.99041 C58.6856742,4.8356686 58.5502755,4.70026988 58.3761914,4.70026988 L56.2098119,4.70026988 C56.0357278,4.70026988 55.9003291,4.8356686 55.9003291,4.99041 L55.9003291,15.802965 C55.9003291,15.9577064 56.0357278,16.0931051 56.2098119,16.0931051 L58.337506,16.0931051 C58.4922474,16.0931051 58.6469888,15.9577064 58.6469888,15.802965 L58.6469888,10.7738697 C58.6469888,8.4720914 59.6334652,7.06007616 61.2195645,7.06007616 C61.664446,7.06007616 62.0319569,7.17613221 62.3607823,7.4082443 C62.438153,7.46627233 62.5155237,7.485615 62.6122371,7.46627233 C62.7089505,7.44692965 62.7669785,7.38890163 62.8056638,7.31153093 L63.7727976,5.55134756 C63.8308256,5.43529151 63.8114829,5.29989279 63.7147695,5.18383674 C63.1925173,4.71961256 62.4188103,4.46815779 61.5870753,4.46815779 Z" id="Path" fill="#1D43A0"></path>
          <path d="M66.6161707,9.18777035 C66.7709121,8.18195128 67.3318497,6.82796407 69.150061,6.82796407 C71.0456431,6.82796407 71.5678953,8.18195128 71.7032941,9.18777035 L66.6161707,9.18777035 Z M69.1694037,4.48750047 C67.428563,4.48750047 65.9778624,5.12580872 64.991386,6.34439721 C64.1209657,7.4082443 63.6373988,8.85894488 63.6373988,10.4257015 C63.6373988,13.3271027 65.4169249,16.2671892 69.3628305,16.2671892 C71.2777552,16.2671892 72.7864838,15.6675663 74.0631003,14.3716071 C74.1211284,14.3135791 74.1598137,14.2362084 74.1598137,14.1588377 C74.1598137,14.081467 74.1017857,14.0040963 74.0437577,13.9460683 L72.5156864,12.7274798 C72.3996303,12.6307664 72.2062036,12.6501091 72.0901476,12.7468224 C71.3744686,13.4818441 70.5620763,13.8106695 69.3628305,13.8106695 C67.2738216,13.8106695 66.7322267,12.2825983 66.6161707,11.3734926 L74.1211284,11.3734926 C74.2758698,11.3734926 74.3919258,11.2767792 74.4112685,11.1413805 C74.4499538,10.928611 74.4886392,10.5030722 74.4886392,10.1742467 C74.4886392,7.42758698 73.076624,4.48750047 69.1694037,4.48750047 Z" id="Shape" fill="#1D43A0"></path>
          <path d="M27.563311,0.193426744 C26.6348627,0.193426744 25.899841,0.909105698 25.899841,1.79886872 C25.899841,2.68863174 26.6542053,3.4043107 27.563311,3.4043107 C28.4917594,3.4043107 29.226781,2.68863174 29.226781,1.79886872 C29.2461237,0.909105698 28.4724167,0.193426744 27.563311,0.193426744 Z" id="Path" fill="#169539"></path>
        </g>
        <path d="M11.2961219,0.193426744 C9.20711302,0.193426744 7.52430035,1.83755407 7.52430035,3.88787756 L7.52430035,10.0195053 C7.52430035,12.417997 6.18965581,14.5070058 4.19736035,15.6482236 C4.0813043,15.7062516 4.0813043,15.860993 4.19736035,15.919021 C4.66158453,16.1317905 5.70608895,16.518644 7.00204814,16.518644 C10.6771563,16.518644 13.6559281,13.6172428 13.6559281,10.0195053 L13.6559281,10.0195053 L13.6559281,1.00581907 C13.6559281,0.560937558 13.2884173,0.212769419 12.8435358,0.212769419 L11.2961219,0.212769419 L11.2961219,0.193426744 Z" id="Path" fill="#1D43A0"></path>
        <path d="M2.59191837,4.71961256 C4.62289919,4.71961256 6.28636919,6.32505453 6.28636919,8.31735 L6.28636919,9.8260786 L6.28636919,9.9034493 C6.28636919,11.9344301 5.1451514,13.7139562 3.46233872,14.6617472 C3.05614256,14.8938593 2.53389035,14.8164886 2.18572221,14.4876631 C0.947791047,13.30776 0.135398721,11.6249473 0.135398721,9.8260786 L0.154741395,9.8260786 L0.154741395,5.51266221 C0.154741395,5.0677807 0.522252209,4.71961256 0.967133721,4.71961256 L2.59191837,4.71961256 Z" id="Path" fill="#1D43A0"></path>
      </g>
    </g>
  </g>
</svg>
