<svg id="Capa_1" data-name="Capa 1" xmlns="http://www.w3.org/2000/svg" viewBox="0 0 315.17 235.24">
    <defs>
        <style>
            .cls-1 {
                fill: #458295;
            }

            .cls-2 {
                fill: #e8944b;
            }
        </style>
    </defs>
    <path class="cls-1"
        d="M110.68,148.24c-.19-.41-1-.49-.15-1.17,2.82-1.95,5.93-1.84,8.74-3.77l-.11-.76,7.7-2.7,6.62-3.47.74-.37.37-.19,0,0c0-.05.05-.08.08-.12a.43.43,0,0,1,.22-.18,1.47,1.47,0,0,1,.1-.6.28.28,0,0,1,.22,0l.61.2.76.29c1.07.42,2.27,1,3.54,1.51l1.17.35a.84.84,0,0,0,.64-.35c1.16.52,2.18,1.05,3.11,1.57,3.44,1.17,6.91,2.48,10.38,4,1.73.73,3.46,1.5,5.15,2.32.85.42,1.68.84,2.48,1.27l1.16.64a8.71,8.71,0,0,1,1.43,1,16.94,16.94,0,0,0,3.48,2.28,10.27,10.27,0,0,0,4.08,1,21.54,21.54,0,0,0,8.44-1.53,49.33,49.33,0,0,0,6-2.83c1.87-1,3.65-2.1,5.42-3.22,2.94-2.24,5.71-4.58,8.5-6.59.8-.54,1.67-1.09,2.56-1.65l2.24-1.35,3.82-2.22c.66.5,1.26,1.19,1.84,1.69.16-1.57,2.09-1.14,4.63-.21s5,1.76,4.94,0c2.41,2.15,6.06,5.32,6.72,4.92,2-1.23,5.49-1.44,12.79,2.62a43.87,43.87,0,0,1,4.14,3.26,8.09,8.09,0,0,0,2.68,1.82c1.58.18-2-3.08-.34-2.88-2.2-1.61-4.71-3.65-7.15-5.65L233,130.83l-7.43-6.29L219,118.79l-7.46-6.57c-4.76,3.28-9.66,6.77-14.27,9.64-2.29,1.46-4.6,2.87-6.92,4.21s-4.65,2.61-6.95,3.72c-1.14.54-2.28,1.08-3.37,1.51-.56.24-1.08.43-1.6.63l-.76.26-.61.2a1.52,1.52,0,0,1-.2.38.4.4,0,0,1-.49.1l-.08,0-.42-.31-1-.72c-.67-.45-1.35-.92-2-1.34-1.35-.88-2.73-1.7-4.16-2.51-2.84-1.63-5.85-3.21-9-4.76s-6.45-3-9.89-4.47c-1.73-.72-3.49-1.4-5.35-2.06-.93-.33-1.88-.65-2.9-1-.39-.12-1.35-.4-2.07-.58s-1.55-.33-2.33-.49a15.73,15.73,0,0,0-4.64-.15,9.71,9.71,0,0,0-2.24.52c-.73.22-1.45.47-2.18.72s-1.41.62-2.06.9l-1.26.57-2.28,1.1c-3,1.45-5.72,2.82-8.27,4.09-5.06,2.53-9.21,4.61-11.89,5.88l-1.18.65c-7.3,3.62-16,8.38-21.57,12.46-2.51,2-5,4.15-7.48,6.27,1.51-.32,2.92-.59,4.17-.78-2.9,1.47-5.79,2.95-6.67,3.94C64,155,68,154.31,71.2,154.61c2-.22.31,2,3.32,1.32l-4.81,2.45c.12.75,5.7-3.45,4.93-1.7-2,.73-3.81,2.22-5.73,3.2,1.12.52,6.77-3.18,6.94-2.17-.93.74-6,1.68-5.78,2.94,0,.25,2-.73,2.93-1.22-5.7,3.45-8.38,6.19-2.41,4.51-1.87,1-4.74,1.9-6.62,3.1h0c1-.48,2.81-1.16,3.72-1.63l-3.37,1.73c.25.05.53.09.82.13a20.3,20.3,0,0,0,2.67-1.1l-2.24,1.15a17.83,17.83,0,0,0,2.42,0c3-.72,6.07-1.05,7.51-1.78C87.32,159.91,99.1,154.15,110.68,148.24Z" />
    <polygon class="cls-2"
        points="235.61 70.28 247.67 70.28 247.67 161.7 241.64 163.77 235.61 162 235.61 130.93 232.09 121.17 232.09 92.76 236.2 86.38 235.61 70.28" />
    <path class="cls-2"
        d="M250.86,100.19c.28,9.52.24,20.09.19,30.68l0,15.78c0,2.59,0,5.15.05,7.66l.14,9.93-.38.14-9.09,3.3-10-2.79-.22-18.37-.12-14.85q-1.78-4.89-3.55-9.76c0-6.13,0-12.2,0-18.15.34,0,.85,1.93,1,0,.51-7.72,1.2-7.72,1.88-7.72.34,0,0,5.79.34,3.86,0,5.79.17,15.44.52,9.65.34-1.93,0-9.65.51-11.58s1,1.93,1.54,0V93.24l1.1-1.71c1.33-1.43-.18,2.18.86.56l1.42-2L237.8,89c.41-.6.81-1.22,1.23-1.85,0-1.5-.09-3.06-.14-4.67l-.15-4-.34-8.33c.34,0,.61-2,.93,1.9q.31,7.65.63,15.35l-4.11,6.46q.09,13.26.17,26.59,1.8,4.88,3.59,9.75.09,14.29.18,28.63h.08l1.44.42.21.06h0l.23-.08,1.5-.53.12,0h0q-.06-21.43-.11-42.81,0-11.43,0-22.84,0-5.7,0-11.38l0-5.68V74.58h0v0s0,0-.1,0l-4.29,0c-7.67-.17-1.92-.86,3.83-1.38-1.91.18-1.91-.34-3.83-.17,0-.22.71-.51,2.15-.78l1.21-.19c.42-.07,1-.13,1.3-.19.72-.11,1.65-.21,2.76-.28.05.6.09,1.29.11,2.07V71.36h-2.14c-.69-.08-.7-.21-.48-.36s.7-.33.76-.5c1,0,2,0,2.74,0,0,.55.07.89.15.83l.68-.53V69.64H241l2.66,0a3.78,3.78,0,0,0,1.43-.15l.23-.69c1.18,0,2.51,0,3.9,0l-.07,7c0,1.85,0,3.63,0,5.12h.52c.06-1.49.08-3.27.07-5.12l-.05-7.54-4.22,0c2.89-.18,3.1-.35,3.35-.69l1.55,0c0,2.21,0,4.47,0,6.7l-.07,4.23c0,2.74,0,5.47.22,8.21V80.9C251.38,84.76,250.69,94.4,250.86,100.19Z" />
    <polygon class="cls-2" points="193.68 145.3 203.11 167.68 212.64 166.33 200.75 141.18 193.68 145.3" />
    <polygon class="cls-2"
        points="207.15 167.13 207.15 151.53 216.84 148.58 216.84 153.88 223.32 148.58 229.21 153.88 229.21 163.9 207.15 167.13" />
</svg>