<svg xmlns="http://www.w3.org/2000/svg" id="Capa_1" data-name="Capa 1" viewBox="96.4 214.37 649.05 167.17"><defs><style>.cls-1{fill:#458295;}.cls-2{fill:#e8944b;}</style></defs><path class="cls-1" d="M170.49,345.76c-.29-.65-1.6-.78-.23-1.86,4.46-3.09,9.39-2.91,13.86-6l-.18-1.2,12.2-4.29,10.49-5.5,1.18-.59.59-.29c.07,0,0,0,.07-.07a1.58,1.58,0,0,0,.13-.18.76.76,0,0,1,.35-.29,2.27,2.27,0,0,1,.16-1,.52.52,0,0,1,.35,0l1,.32,1.22.45c1.68.66,3.6,1.52,5.6,2.4l1.86.55a1.34,1.34,0,0,0,1-.55c1.84.83,3.45,1.66,4.93,2.48,5.46,1.86,11,3.94,16.46,6.26,2.75,1.16,5.49,2.39,8.17,3.69,1.33.65,2.65,1.32,3.92,2l1.85,1a13.31,13.31,0,0,1,2.25,1.49,27.37,27.37,0,0,0,5.52,3.63,16.08,16.08,0,0,0,6.47,1.52c4.48.3,9.16-.89,13.38-2.41a79.34,79.34,0,0,0,9.46-4.49c3-1.6,5.77-3.33,8.57-5.1,4.67-3.56,9.06-7.27,13.48-10.45,1.28-.86,2.65-1.73,4.07-2.61l3.55-2.15,6-3.53c1,.8,2,1.9,2.93,2.69.25-2.48,3.31-1.8,7.33-.33s7.92,2.79,7.84,0c3.81,3.41,9.61,8.44,10.65,7.81,3.12-2,8.7-2.29,20.28,4.15a67.63,67.63,0,0,1,6.56,5.17c2.08,1.75,3.48,2.78,4.24,2.87,2.51.29-3.08-4.87-.54-4.55-3.48-2.55-7.47-5.78-11.33-9l-11.75-9.77-11.77-10-10.53-9.12-11.82-10.4c-7.54,5.19-15.31,10.72-22.62,15.27-3.63,2.32-7.3,4.56-11,6.68s-7.38,4.13-11,5.89c-1.81.86-3.62,1.71-5.35,2.4-.88.38-1.71.68-2.54,1-.42.17-.8.28-1.19.41l-1,.32a2.19,2.19,0,0,1-.31.61.64.64,0,0,1-.78.16.4.4,0,0,1-.12-.07l-.67-.5-1.59-1.13c-1.05-.72-2.13-1.46-3.19-2.13-2.15-1.38-4.34-2.68-6.6-4-4.5-2.58-9.28-5.08-14.27-7.53s-10.22-4.84-15.68-7.1c-2.73-1.13-5.53-2.22-8.48-3.26-1.47-.52-3-1-4.59-1.52-.63-.2-2.14-.63-3.29-.92s-2.46-.53-3.68-.78a25.37,25.37,0,0,0-7.37-.24,15.57,15.57,0,0,0-3.54.83c-1.16.34-2.31.74-3.46,1.14s-2.24,1-3.27,1.42l-2,.91-3.61,1.75c-4.77,2.29-9.07,4.47-13.11,6.47-8,4-14.6,7.31-18.84,9.33l-1.88,1c-11.57,5.74-25.28,13.28-34.19,19.74-4,3.18-7.92,6.59-11.86,9.95,2.39-.51,4.63-.93,6.61-1.23-4.6,2.33-9.18,4.66-10.58,6.24-8.86,6.68-2.42,5.57,2.6,6,3.25-.35.5,3.21,5.27,2.09l-7.63,3.88c.19,1.2,9-5.47,7.82-2.68-3.11,1.15-6,3.51-9.09,5.06,1.78.82,10.75-5,11-3.44-1.46,1.18-9.47,2.66-9.15,4.67.06.4,3.11-1.16,4.64-1.93-9,5.46-13.28,9.81-3.82,7.14-3,1.51-7.52,3-10.5,4.91h0c1.58-.77,4.45-1.85,5.89-2.59L97,375.72c.4.09.84.15,1.3.21a33.34,33.34,0,0,0,4.23-1.74L99,376a27.38,27.38,0,0,0,3.84,0c4.77-1.14,9.62-1.66,11.91-2.82C133.46,364.27,152.14,355.13,170.49,345.76Z"/><path class="cls-2" d="M393.25,357.76q0-6.24-.09-12.67c0-8.56,0-17.32.07-26.08.08-17.5.15-35-.32-50.7-.28-9.56.86-25.5-.57-31.88V246a133.39,133.39,0,0,1-.36-13.56l.11-7c0-3.69.05-7.42,0-11.07l-2.58,0c-.42.57-.77.85-5.57,1.14l7,0c0,4,.06,8.29.09,12.46,0,3.05,0,6-.13,8.46h-.85C390,234,390,231,390,228c.05-3.91.09-7.95.13-11.65-2.32,0-4.52,0-6.49.08-.09.29-.28.85-.38,1.14a6.68,6.68,0,0,1-2.37.25l-4.44,0h12.18v1.86l-1,.81v-1.62H373.38c-.38-2.11-.75-.19-1.19-.17v.17h-4.64l.22,6.07c-.8.2-.9.38,0,.53l.74,20L361.68,256v9.05c-.72,3.74-.21,15.63-.76,18.69-.57,9.58-.85-6.37-.85-15.94-.57,3.19,0-6.37-.57-6.37-1.14,0-2.28,0-3.13,12.75-.29,3.19-1.14,0-1.71,0,0,9.83,0,19.86,0,30l5.92,16.13c.06,8.17.12,16.37.18,24.55.13,10.17.26,20.31.38,30.35l16.56,4.61,15.13-5.46.62-.22Q393.36,366.13,393.25,357.76Z"/><path class="cls-1" d="M450.52,241.9v39.7h13.61v6.56H443.54V241.9Z"/><path class="cls-1" d="M491,259h6.78v29.19H491V285.1a12.94,12.94,0,0,1-19-.47,16.28,16.28,0,0,1-3.93-11.15A15.78,15.78,0,0,1,472,262.54a12.62,12.62,0,0,1,9.83-4.37,12.41,12.41,0,0,1,9.13,4.19Zm-16,14.51a10.15,10.15,0,0,0,2.25,6.83A7.36,7.36,0,0,0,483,283a7.75,7.75,0,0,0,6.06-2.58,11.09,11.09,0,0,0,0-13.55,7.66,7.66,0,0,0-6-2.6,7.46,7.46,0,0,0-5.82,2.64A9.71,9.71,0,0,0,475,273.48Z"/><path class="cls-1" d="M534.48,287.47c0,1.38,0,2.59-.13,3.64a25,25,0,0,1-.37,2.77,12.36,12.36,0,0,1-2.82,5.67q-4,4.54-10.88,4.55a14.57,14.57,0,0,1-9.62-3.14,12.9,12.9,0,0,1-4.49-9h6.77a7.68,7.68,0,0,0,1.29,3.32,7.23,7.23,0,0,0,6.11,2.73q7.41,0,7.4-9.08v-4.08a12.57,12.57,0,0,1-9.26,4.11,12.41,12.41,0,0,1-9.76-4.32,16,16,0,0,1-3.84-10.93,16.83,16.83,0,0,1,3.57-10.85,12.39,12.39,0,0,1,10.12-4.73,11.76,11.76,0,0,1,9.17,4.1V259h6.74ZM528,273.63a9.88,9.88,0,0,0-2.27-6.81,7.56,7.56,0,0,0-5.91-2.6,7.27,7.27,0,0,0-6.05,2.84,10.34,10.34,0,0,0-2,6.6,10.22,10.22,0,0,0,2,6.53,7.26,7.26,0,0,0,6.05,2.79,7.41,7.41,0,0,0,6.12-2.82A10.07,10.07,0,0,0,528,273.63Z"/><path class="cls-1" d="M549.74,259v16.76q0,7.25,5.72,7.25t5.72-7.25V259h6.75v16.91a19.08,19.08,0,0,1-.87,6.05,10.08,10.08,0,0,1-2.91,4.1,14.15,14.15,0,0,1-17.35,0,10.25,10.25,0,0,1-3-4.1,16.69,16.69,0,0,1-.84-6.05V259Z"/><path class="cls-1" d="M576.44,259h6.77v2.7a11.07,11.07,0,0,1,8-3.5,10.06,10.06,0,0,1,7.94,3.2q2.46,2.73,2.46,8.9v17.89H594.8v-16.3c0-2.88-.39-4.86-1.19-6s-2.2-1.68-4.26-1.68q-3.36,0-4.76,2.22t-1.38,7.64v14.08h-6.77Z"/><path class="cls-1" d="M617,265.27v22.89H610.3V265.27h-2.88V259h2.88V248.28H617V259h5.24v6.3Z"/><path class="cls-1" d="M636.55,281.81H653.9v6.35H623.18l18.91-22.89H627.2V259h28.22Z"/><path class="cls-1" d="M681.73,259h6.78v29.19h-6.78V285.1a12.94,12.94,0,0,1-19-.47,16.28,16.28,0,0,1-3.93-11.15,15.78,15.78,0,0,1,3.93-10.94,12.62,12.62,0,0,1,9.82-4.37,12.41,12.41,0,0,1,9.14,4.19Zm-16,14.51a10.15,10.15,0,0,0,2.25,6.83,7.36,7.36,0,0,0,5.81,2.67,7.75,7.75,0,0,0,6.06-2.58,11.13,11.13,0,0,0,0-13.55,7.66,7.66,0,0,0-6-2.6,7.44,7.44,0,0,0-5.81,2.64A9.71,9.71,0,0,0,665.73,273.48Z"/><path class="cls-1" d="M449.23,338.91v22.9h-6.77v-22.9h-2.4v-6.29h2.4V321.35q0-5.5,1.92-7.79,2.64-3.17,7.67-3.17a13,13,0,0,1,4.53,1.05v6.88l-.69-.35a8.48,8.48,0,0,0-3.6-1.11,2.44,2.44,0,0,0-2.43,1.29,12.33,12.33,0,0,0-.63,4.85v9.62h7.35v6.29Z"/><path class="cls-1" d="M460.74,320.48a4.2,4.2,0,0,1,1.29-3.06,4.39,4.39,0,0,1,6.2,0,4.17,4.17,0,0,1,1.29,3.09,4.25,4.25,0,0,1-1.29,3.12,4.13,4.13,0,0,1-3.08,1.29,4.4,4.4,0,0,1-4.41-4.44Zm7.76,12.14v29.19h-6.74V332.62Z"/><path class="cls-1" d="M494,337.59l-5.58,3c-.88-1.8-2-2.7-3.26-2.7a2.29,2.29,0,0,0-1.59.61,2.07,2.07,0,0,0-.66,1.58q0,1.68,3.89,3.32,5.37,2.31,7.23,4.26a7.33,7.33,0,0,1,1.85,5.25,9.18,9.18,0,0,1-3.11,7.06,10.63,10.63,0,0,1-7.32,2.71q-7.33,0-10.39-7.17l5.75-2.66a12.66,12.66,0,0,0,1.83,2.66,4.17,4.17,0,0,0,2.93,1.14q3.42,0,3.42-3.11c0-1.21-.88-2.32-2.64-3.36-.68-.34-1.35-.67-2-1l-2.07-1a12.67,12.67,0,0,1-4.14-2.88,7.12,7.12,0,0,1-1.52-4.7,8.33,8.33,0,0,1,2.6-6.29,9.15,9.15,0,0,1,6.47-2.49Q491.28,331.81,494,337.59Z"/><path class="cls-1" d="M500.93,320.48a4.39,4.39,0,0,1,4.37-4.34,4.28,4.28,0,0,1,3.12,1.28,4.17,4.17,0,0,1,1.29,3.09,4.25,4.25,0,0,1-1.29,3.12,4.15,4.15,0,0,1-3.09,1.29,4.23,4.23,0,0,1-3.11-1.29A4.29,4.29,0,0,1,500.93,320.48Zm7.76,12.14v29.19H502V332.62Z"/><path class="cls-1" d="M515.85,347a14.51,14.51,0,0,1,4.53-10.76,16,16,0,0,1,22.11,0,15.61,15.61,0,0,1,0,22,15.46,15.46,0,0,1-11.18,4.41,14.8,14.8,0,0,1-11-4.5A15.11,15.11,0,0,1,515.85,347Zm6.89.12a9.81,9.81,0,0,0,2.34,6.92,9.08,9.08,0,0,0,12.65,0,11,11,0,0,0,0-13.6,9,9,0,0,0-12.59,0A9.38,9.38,0,0,0,522.74,347.12Z"/><path class="cls-1" d="M561.43,338.91v22.9h-6.74v-22.9h-2.88v-6.29h2.88v-10.7h6.74v10.7h5.24v6.29Z"/><path class="cls-1" d="M598.38,348.8H577.46a8.82,8.82,0,0,0,2.34,5.72,7.11,7.11,0,0,0,5.3,2.1,6.91,6.91,0,0,0,4.17-1.2A17.17,17.17,0,0,0,593,351l5.7,3.18a23,23,0,0,1-2.79,3.85,15.08,15.08,0,0,1-3.15,2.63,12.68,12.68,0,0,1-3.62,1.51,17.66,17.66,0,0,1-4.23.49,13.78,13.78,0,0,1-10.49-4.2q-3.95-4.23-4-11.21t3.83-11.2a13.23,13.23,0,0,1,10.25-4.23q6.45,0,10.19,4.1t3.72,11.3Zm-6.93-5.51q-1.41-5.4-6.8-5.4a7,7,0,0,0-2.31.38,6.57,6.57,0,0,0-3.47,2.77,7.88,7.88,0,0,0-1,2.25Z"/><path class="cls-1" d="M605.75,332.62h6.74v2.61a12.89,12.89,0,0,1,3.3-2.67,7.5,7.5,0,0,1,3.47-.75,10.9,10.9,0,0,1,5.58,1.74l-3.09,6.17a6.44,6.44,0,0,0-3.74-1.38q-5.52,0-5.52,8.33v15.14h-6.74Z"/><path class="cls-1" d="M649.8,332.62h6.77v29.19H649.8v-3.06a12.94,12.94,0,0,1-19-.48,16.26,16.26,0,0,1-3.93-11.15,15.78,15.78,0,0,1,3.93-10.94,12.66,12.66,0,0,1,9.83-4.37A12.45,12.45,0,0,1,649.8,336Zm-16,14.5A10.18,10.18,0,0,0,636,354a7.39,7.39,0,0,0,5.81,2.66,7.75,7.75,0,0,0,6.06-2.58,11.08,11.08,0,0,0,0-13.54,7.63,7.63,0,0,0-6-2.61,7.46,7.46,0,0,0-5.82,2.64A9.71,9.71,0,0,0,633.79,347.12Z"/><path class="cls-1" d="M671.82,377.69h-6.74V332.62h6.74v3.17a12.5,12.5,0,0,1,9-4,12.64,12.64,0,0,1,9.92,4.43,16,16,0,0,1,4,11.12,15.75,15.75,0,0,1-3.92,10.94,12.78,12.78,0,0,1-19,.24Zm16-30.3a10.08,10.08,0,0,0-2.28-6.83,7.34,7.34,0,0,0-5.81-2.67,7.69,7.69,0,0,0-6,2.58,9.75,9.75,0,0,0-2.31,6.77,10,10,0,0,0,2.31,6.77,7.56,7.56,0,0,0,6,2.61,7.32,7.32,0,0,0,5.79-2.64A9.58,9.58,0,0,0,687.85,347.39Z"/><path class="cls-1" d="M700.86,320.48a4.37,4.37,0,0,1,4.37-4.34,4.28,4.28,0,0,1,3.12,1.28,4.17,4.17,0,0,1,1.29,3.09,4.25,4.25,0,0,1-1.29,3.12,4.15,4.15,0,0,1-3.09,1.29,4.25,4.25,0,0,1-3.12-1.29A4.32,4.32,0,0,1,700.86,320.48Zm7.76,12.14v29.19h-6.74V332.62Z"/><path class="cls-1" d="M738.67,332.62h6.78v29.19h-6.78v-3.06a12.93,12.93,0,0,1-19-.48,16.26,16.26,0,0,1-3.93-11.15,15.78,15.78,0,0,1,3.93-10.94,12.66,12.66,0,0,1,9.83-4.37,12.41,12.41,0,0,1,9.13,4.19Zm-16,14.5a10.18,10.18,0,0,0,2.25,6.84,7.39,7.39,0,0,0,5.81,2.66,7.75,7.75,0,0,0,6.06-2.58,11.11,11.11,0,0,0,0-13.54,7.64,7.64,0,0,0-6-2.61,7.46,7.46,0,0,0-5.81,2.64A9.71,9.71,0,0,0,722.67,347.12Z"/><polygon class="cls-2" points="297.81 343.68 313.48 380.9 329.22 380.9 309.57 336.82 297.81 343.68"/><path class="cls-2" d="M307.38,365.3l6.4,15.15h14.73l-.62-1.38c-5.39-11.85-11.13-24.73-16.43-36.61,0,0,.55.94.13-.06-1.71-4-1.63-4-1.54-4.06s1.32,3,.92,2c1.33,3,3.56,7.92,2.27,4.93-.4-1-2.21-5-2.58-6s.56.93.18-.09l-1.18-2.64-1.65,1c-1,.51.87-.66-.07-.11-2.83,1.6-6.57,3.8-10.32,6,0,0-1,.47.88-.65l11.3-6.6,20.29,45.36h-17q-7.56-18-15-35.79c-1.66-4-.32-1.05,1,1.93-.44-1-.38-1-.82-2a9.28,9.28,0,0,1,.74,1.45c.45,1,1.12,2.47,2,4.47l-1.26-3c-.4-1,.06,0,.1,0l.58,1.38c.16.37.28.61.28.61l.09,0c-.42-1-1.26-3-1.69-4,.22.5.43,1,.59,1.37s.28.62.28.62l.08,0,2.95,7,.06,0-2.95-7c.45,1,.47,1,.51,1,1.28,3,2.48,6,3.81,9l-1.26-3C304.07,357.28,306.09,362.31,307.38,365.3Z"/><polygon class="cls-2" points="320.2 367.68 320.2 341.72 336.32 336.82 336.32 345.64 347.1 336.82 356.89 345.64 356.89 362.29 320.2 367.68"/><path class="cls-2" d="M320.63,341.14l16.14-4.93v8.49c3.54-2.92,7-5.77,10.28-8.45l.06-.05,10.31,9.2c0,5.77,0,11.6,0,17.37L342,365.05c0-.05,1.19-.29,0-.14-2.41.32-3.62.46-4.23.51s-.61,0-.62-.05l.54-.1,1.11-.16c.75-.11,1.36-.2.75-.13,3.62-.54,9.64-1.44,6-1-1.22.14-6,.89-7.24,1s1.18-.31,0-.2l-4.82.7c-1.21.13,1.18-.31,0-.13-3.62.48-8.44,1.21-13.25,1.92,0,0-1.22.09,1.18-.29l35-5.19q0-8,0-15.95l-9.27-8.32-11.33,9.28V337.6l-15,4.54q0,11.73,0,23.35c0,4.87-.11,1.22-.18-2.43,0,1.21,0,1.21,0,2.43a1.36,1.36,0,0,1-.06-.46l-.06-1.37c0-1.21-.07-3-.09-5.48v3.66c0,1.22-.06,0-.11,0v-1.68c0-.45,0-.76,0-.76h-.09v3.2c0-.46,0-.76,0-.76H320v-8.53h-.06v8.53c0-1.22-.05-1.22-.1-1.22,0-3.65.05-7.31,0-11v3.65c-.05-1.15-.06-3.13-.06-5.28s0-4.69,0-6.62Z"/></svg>